<?xml version="1.0" encoding="UTF-8" standalone="no" ?>
<!DOCTYPE svg PUBLIC "-//W3C//DTD SVG 1.1//EN" "http://www.w3.org/Graphics/SVG/1.1/DTD/svg11.dtd">
<svg xmlns="http://www.w3.org/2000/svg" xmlns:xlink="http://www.w3.org/1999/xlink" version="1.1" width="1080" height="1080" viewBox="0 0 1080 1080" xml:space="preserve">
<desc>Created with Fabric.js 5.2.4</desc>
<defs>
</defs>
<g transform="matrix(1 0 0 1 540 540)" id="c6fdd7d6-e259-4370-89e4-4da1328d50ad"  >
<rect style="stroke: none; stroke-width: 1; stroke-dasharray: none; stroke-linecap: butt; stroke-dashoffset: 0; stroke-linejoin: miter; stroke-miterlimit: 4; fill: rgb(255,255,255); fill-rule: nonzero; opacity: 1; visibility: hidden;" vector-effect="non-scaling-stroke"  x="-540" y="-540" rx="0" ry="0" width="1080" height="1080" />
</g>
<g transform="matrix(1 0 0 1 540 540)" id="516d6800-d632-4137-881d-2a10003b36a2"  >
</g>
<g transform="matrix(1 0 0 1 540 540)"  >
<g style="" vector-effect="non-scaling-stroke"   >
		<g transform="matrix(0.13 0 0 -0.13 -114.01 0)" id="path12"  >
<path style="stroke: none; stroke-width: 1; stroke-dasharray: none; stroke-linecap: butt; stroke-dashoffset: 0; stroke-linejoin: miter; stroke-miterlimit: 4; fill: rgb(255,255,255); fill-rule: evenodd; opacity: 1;" vector-effect="non-scaling-stroke"  transform=" translate(-929.99, -565.67)" d="M 508.078 1129.89 L 1858.54 1129.89 L 1774.71 839.715 L 547.664 839.715 L 513.43 697.855 L 1564.7 697.855 C 1648.8 697.855 1744.89 602.207 1723.13 520.973 L 1626.41 159.871 C 1597.65 52.5195 1469.49 1.44141 1358.36 1.44141 L 1.44141 1.44141 L 72.3711 224.352 C 85.5586 265.793 141.281 278.71500000000003 184.76999999999998 278.71500000000003 L 1282.86 278.71500000000003 L 1316.8899999999999 420.57800000000003 L 314.629 420.57800000000003 C 223.61700000000002 420.57800000000003 128.348 522.793 149.75000000000003 611.25 L 246.473 1011.04 C 270.41 1109.98 406.285 1129.8899999999999 508.07800000000003 1129.8899999999999" stroke-linecap="round" />
</g>
		<g transform="matrix(0.13 0 0 -0.13 114.01 0)" id="path14"  >
<path style="stroke: none; stroke-width: 1; stroke-dasharray: none; stroke-linecap: butt; stroke-dashoffset: 0; stroke-linejoin: miter; stroke-miterlimit: 4; fill: rgb(255,255,255); fill-rule: evenodd; opacity: 1;" vector-effect="non-scaling-stroke"  transform=" translate(-2640.11, -565.67)" d="M 2218.2 1129.89 L 3568.66 1129.89 L 3484.84 839.715 L 2257.78 839.715 L 2223.55 697.855 L 3274.82 697.855 C 3358.9100000000003 697.855 3455.01 602.207 3433.25 520.973 L 3336.52 159.871 C 3307.77 52.5195 3179.61 1.44141 3068.47 1.44141 L 1711.56 1.44141 L 1782.49 224.352 C 1795.68 265.793 1851.4 278.71500000000003 1894.89 278.71500000000003 L 2992.9700000000003 278.71500000000003 L 3027.01 420.57800000000003 L 2024.75 420.57800000000003 C 1933.74 420.57800000000003 1838.47 522.793 1859.87 611.25 L 1956.59 1011.04 C 1980.53 1109.98 2116.4 1129.8899999999999 2218.2 1129.8899999999999" stroke-linecap="round" />
</g>
</g>
</g>
</svg>